<svg xmlns="http://www.w3.org/2000/svg" viewBox="0 0 408 408"><defs><style>.cls-1{fill:none;stroke:#fff;stroke-miterlimit:10;stroke-width:8px;}.cls-2{fill:#fff;}</style></defs><title>mp_logo</title><g id="Livello_2" data-name="Livello 2"><g id="Livello_1-2" data-name="Livello 1"><path class="cls-1" d="M205.59,4h0A198.41,198.41,0,0,1,404,202.41v3.19A198.41,198.41,0,0,1,205.59,404h-3.19A198.41,198.41,0,0,1,4,205.59v0A201.59,201.59,0,0,1,205.59,4Z"/><path class="cls-2" d="M239.41,272.92q.3,1.83,1.22,8.1a79.72,79.72,0,0,1,.92,11.46q0,5.81-1.38,8.25a5.39,5.39,0,0,1-3.67,2.9,45.3,45.3,0,0,1-7.79.46q-19.56,0-19.56-7a38.9,38.9,0,0,1,.76-6.88q.76-4.13,1.07-5.35a398.79,398.79,0,0,1-1.83-41.57q0-5.8-3.06-24.14t-4.59-24.76l-1.83-1.83q0-9.17-.92-22.46T196,156.78h-4v7.34q-3.67,9.17-15.13,34.69t-18.8,40.8a45.12,45.12,0,0,0-2.6,5.81,25.44,25.44,0,0,1-3.82,6.88,6.51,6.51,0,0,1-5.2,2.6q-6.42,0-10.24-3.51t-4.13-9.93q-16.2-26.89-25.83-45.08a246.45,246.45,0,0,1-15.74-36.22q-.31,0-2.14-1.83-.62,4.89-3.67,20.78,0,7.64-3.06,26-3.06,19-3.06,28.12a49,49,0,0,0,.31,6.42l-9.47,64.18q-.62,4.28-8.25,4.28A34.71,34.71,0,0,1,51,306.85a39.8,39.8,0,0,1-9.63-5.19,8.78,8.78,0,0,1-.92-2.6,21,21,0,0,0-.92-2.9q7.64-35.45,7.64-59.29l-.31-10.39,11.61-68.16q0-11.61,3.67-33.62A64,64,0,0,0,62.6,117a30.75,30.75,0,0,1,2-10.7q1.83-4.58,5.81-4.58a11.83,11.83,0,0,1,3.06,1.07,10.46,10.46,0,0,0,4,1.07q.61-.3,2.29-1.07a17.81,17.81,0,0,1,2.9-1.07q4.58,1.53,12.07,13.29t19.71,34.38q10.39,19,16.5,29.34t10.39,13.75a23.93,23.93,0,0,0,7-8.25q3.05-5.5,7.34-14.67a84.64,84.64,0,0,1,4.59-9.48l8.56-13.45,4.58-7q3.67-6.42,8.86-16.66t8.25-17.27q2.44-5.8,14.06-5.81a21.31,21.31,0,0,1,9.32,2.29,7.76,7.76,0,0,1,4.74,7.49l-.31,2.45.31,2.75q1.53,16.81,4.28,31.94t3.36,18.8q4.28,22.92,6.88,42.18t4.13,48.6A165.55,165.55,0,0,0,239.41,272.92Zm-177,15.28-.31-7H58.78l-.31-1.83a21.25,21.25,0,0,1,1.53-4q-5.2,0-7.18,5.5a33.86,33.86,0,0,0-2,11.61,4.5,4.5,0,0,0,2.29,4.13A10.18,10.18,0,0,0,58.47,298Q62.44,298,62.44,288.2Zm5-46.92q2.29-3.82,2.29-10.24,0-5.8-1.22-8.1a5.31,5.31,0,0,0-4.13-2.75,76.46,76.46,0,0,0-10.24-.46q.3,3.06.92,7.18t1.22,7.18a17,17,0,0,0,3.06,2.9,13.88,13.88,0,0,1,2.75,2.6,7.57,7.57,0,0,1-1.53,3.21q-1.53,2.29-2.14,2.29Q65.19,245.11,67.49,241.29Zm-4,25.37a24.9,24.9,0,0,0,2.9-12.07l-.31-5.5-4,1.83v-2.44q-5.5,0-6.72,5.19T54.19,272Q60.61,272,63.51,266.66Zm-5-53.33a20,20,0,0,0,4.89-1.68,59.13,59.13,0,0,1,6.11-2.29,2.7,2.7,0,0,0-1.53-1.07,5.88,5.88,0,0,0-1.83-.46,30.1,30.1,0,0,0-4.89.46q-2.75.46-2.75,1.07Zm1.53-15a16.57,16.57,0,0,0,3.67-.61,14.72,14.72,0,0,0,4-1.53c-.21-1.42-1.33-2.14-3.36-2.14l-4.28.31Zm13.45,6.11a9.39,9.39,0,0,0,.31-2.75A3.59,3.59,0,0,0,71.61,198a48.27,48.27,0,0,0-6,2q-4.43,1.68-5.65,3.82l11.61,1.53Q73.14,205.38,73.45,204.46Zm-5.81,13.29q4-.76,4-3.51c0-.61-.41-.92-1.22-.92a25,25,0,0,0-7,.76q-2.45.77-2.44,4.43A36.48,36.48,0,0,0,67.64,217.75Zm5-28.12q2.9-1.07,2.9-2.6A13.05,13.05,0,0,0,75,184.9l-11-5.81L62.14,184h5.5q-.92,3.06-5.5,4.89.3,1.83,4.28,1.83A17.93,17.93,0,0,0,72.68,189.64ZM69,178.17a17.78,17.78,0,0,0,7.18,1.53q0-7.64-2.14-10.85t-8.86-3.21q0,3.06,4.28,4.28-4,0-4,3.36T69,178.17Zm9.93-17.42a19,19,0,0,0,1.53-7.34A16,16,0,0,1,73,151.89a11.66,11.66,0,0,0-5.35-1.53v9.78a37.78,37.78,0,0,1,3.67,2.6q2.14,1.68,2.75,1.68Q77.42,164.42,78.95,160.75Zm9-25.21q4.43-2.59,4.43-4.43,0-2.14-3.06-3.51a13.62,13.62,0,0,0-5.5-1.38,25.18,25.18,0,0,0-9.48,2.14q-5.2,2.14-5.2,6.11a17.3,17.3,0,0,0,6.27-1.83,33.83,33.83,0,0,1,5.65-2.14,13.43,13.43,0,0,0-1.38,1.68,3.49,3.49,0,0,0-.76,2,5.16,5.16,0,0,0,1.53,1.53c.81.61,1.22,1.12,1.22,1.53a1.25,1.25,0,0,1-.31.92Q83.53,138.14,88,135.54ZM69.47,121A10.32,10.32,0,0,0,73.14,120a11,11,0,0,1,4.28-1.07q.3,2.45,7.64,2.45a4.75,4.75,0,0,0-.92-3.36,4.22,4.22,0,0,0-3.06-.92v-4a31.63,31.63,0,0,0-5.2-.92,57.24,57.24,0,0,0-6.42-.61Zm13.6,27.2q1.68-.92,3.51-4.89a44.13,44.13,0,0,0-6.11,1.53q-4,1.22-7,2.45A2,2,0,0,0,75,148.83a11.25,11.25,0,0,0,2.75.31A11.72,11.72,0,0,0,83.07,148.22Zm15.59.46q3.21-.46,3.21-2.6,0-.61-4-4.59a86.57,86.57,0,0,0-9.47,7.64h2.75A53.64,53.64,0,0,0,98.66,148.68Zm1.38,4.13-4-.31h-.92q-4.28,0-4.59,2.14A7.12,7.12,0,0,0,93,156.17q1.53.62,2.14.92Q95.76,157.09,100,152.81Zm3.06,15.28a20.41,20.41,0,0,0,9.78-2.14,14.64,14.64,0,0,0-3.36-5.81Q103.09,164.43,103.09,168.09Zm4.28,5.81a6.31,6.31,0,0,0,2.75-1.07,6.37,6.37,0,0,1,2.75-1.07h-5.5Zm4,9.63c.41.92.92,1.38,1.53,1.38a10.51,10.51,0,0,0,4-1.07q2.44-1.07,2.45-2.9h-8.56A6.35,6.35,0,0,0,111.35,183.52Zm1.22-6.27h6.11V173Q112.56,173,112.57,177.26Zm4.13,9.32a5.08,5.08,0,0,0-2.6,4.43q9.17,0,11.92-4.58c-.41-1-1.53-1.53-3.36-1.53A10.74,10.74,0,0,0,116.69,186.58Zm4.13,12.07a11.94,11.94,0,0,0,4.58-.76c1.22-.51,2-1.68,2.45-3.51H114.71l-.31,1.22q0,2.14,1.38,2.6a12.55,12.55,0,0,0,3.82.46Zm5.2,1.22a26.56,26.56,0,0,0-3.36,4l3.36.31a17.12,17.12,0,0,0,4.58-.46,5.62,5.62,0,0,0,2.75-2,5.46,5.46,0,0,0-1.38-2,13.88,13.88,0,0,0-2-1.68l-.92-.31C128.46,197.73,127.44,198.45,126,199.87Zm0,12.23a9.93,9.93,0,0,0,4.74-1.22,4.41,4.41,0,0,0,2.6-3.06H126Zm41.57-26.59a62.12,62.12,0,0,0,8.1-9.17q3.51-4.89,3.51-8.86a21.68,21.68,0,0,0-11.77,3.36q-5.35,3.37-5.35,9.17,0,1.23,1.68,2a9.64,9.64,0,0,1,2,1.07,14.15,14.15,0,0,0-8.86,5.65,63.31,63.31,0,0,0-6.27,9.78q-2.6,5-3.82,6.88l4,2.45a9.73,9.73,0,0,1-5.65,2.14q-3.52.31-4.13.31a29.15,29.15,0,0,0-7.49,1.22,5.5,5.5,0,0,0-3.51,3.67l2.14,1.83a26.18,26.18,0,0,1,4.43-.92,41.42,41.42,0,0,0,4.74-.92l5.5.31V217q-11.92,6.73-11.92,11.92,12.22,0,19.71-6.42t7.49-18.64a13,13,0,0,1-5.81,1.53,5.27,5.27,0,0,0,2.29-1.38c1.12-.92,1.68-1.68,1.68-2.29a6.77,6.77,0,0,0-1.07-2.45,6.42,6.42,0,0,1-1.07-3.06l6.42,1.83q3.67,0,3.67-7.64h-6.11Q163,189.79,167.58,185.51Zm-35.45,37a4.46,4.46,0,0,0,3.06-1.07,3.67,3.67,0,0,0,1.22-2.9q-4.58,0-4.58,3.36Zm7,10.7a1.26,1.26,0,0,1,.31.92,3.88,3.88,0,0,0,2.29-1.22,7.75,7.75,0,0,0,1.68-1.83l-.31-.61a6.3,6.3,0,0,0-2.75.76c-1,.51-1.53,1-1.53,1.38A.87.87,0,0,0,139.16,233.19Zm6.72,6a13.47,13.47,0,0,0,2-2.9l1.07-2.14-1.22-.31q-5.2,2.14-5.2,6.72A4.28,4.28,0,0,0,145.88,239.15Zm29.34-73.66q3.05-1.38,5.81-2.9a12.65,12.65,0,0,0-2.9-2.6,14,14,0,0,0-2.9-1.68,4.71,4.71,0,0,0-4.28,2.75,11.76,11.76,0,0,0-1.53,5.81A14.17,14.17,0,0,0,175.22,165.49ZM200,154.34a8.24,8.24,0,0,0,2,3.36q1.07.92,4.13.92a52,52,0,0,0,6.88-.31c1.32-.2,2-.71,2-1.53-.21-.81-.51-1.83-.92-3.06l-.92-2.75-4-39.43-1.83-.31a14.09,14.09,0,0,0-8.1,2.9,37,37,0,0,0-7.18,6.57,4.11,4.11,0,0,0,2.45,2.6,26.5,26.5,0,0,0,5.65,1.38,16.39,16.39,0,0,1,5.35,1.53A8.14,8.14,0,0,1,200.9,130q-3.06,1.07-3.67,1.38-6.12,1.83-6.72,5.2h15l1.83,3.06a78.64,78.64,0,0,1-10.09,2.75,97,97,0,0,0-15.13,3.82q-5.35,2-5.35,5.65l.31.92,7.34-1.83-1.22-1.83q2.13-.3,6.11-.92t6.72-.92h1.83L196,149.14A10.27,10.27,0,0,1,200,154.34Zm-11.61,2.44a2.33,2.33,0,0,0-.61-1.38,1.67,1.67,0,0,0-1.22-.76c-1,.21-2.29.51-3.82.92s-2.9.82-4.13,1.22a3.87,3.87,0,0,0,2,1.53,9,9,0,0,0,7.79-1.53Zm-4.28-17.12q-.62.31-.92,1.83H192a7.47,7.47,0,0,0-5.5-2.14A6.42,6.42,0,0,0,184.09,139.66Zm5.2-12.68q-.92.77-.92,3.51h2.45a7.3,7.3,0,0,0,5.2-2.44q-.62-1.83-4-1.83A4.24,4.24,0,0,0,189.28,127Zm18,16.35v1.83h-5.81ZM205,165.8c1.32,1.33,2.29,2,2.9,2a9,9,0,0,0,7-3.67q-9.17-1.83-11.92-1.83C203,163.3,203.7,164.47,205,165.8Zm4.13,7.49,7.34,2.44v-6.42a18.66,18.66,0,0,0-4.89.76q-2.75.77-2.75,2.6C208.84,173.08,208.94,173.28,209.15,173.28Zm0,5.81,1.83,1.83a4.14,4.14,0,0,0,2.44-4A5.5,5.5,0,0,0,209.15,179.09Zm3.67,11.31a15,15,0,0,0,5.81.92V180.93a10.43,10.43,0,0,0-5.35,1.53,4.53,4.53,0,0,0-2.6,4Q210.68,189.49,212.82,190.4Zm.31,9.78,4.43-1.07c2.14-.51,3.21-1.07,3.21-1.68q0-3.36-5.81-3.36l-1.83.31Zm1.83,7.64a14.34,14.34,0,0,0,3.51,1.07,20.12,20.12,0,0,0,3.82.46q2.75,0,2.75-7.95a20.92,20.92,0,0,0-6.88,1.22q-3.52,1.22-3.51,4Zm5.65,4.28a13.28,13.28,0,0,0-4.13-.92v6.11a10.08,10.08,0,0,0,4.58-1.07,8.54,8.54,0,0,0,3.36-2.9C223.61,213.12,222.34,212.71,220.61,212.1Zm3.82,17.73V218.52q-3.37,0-7.95,4.58Q216.48,229.83,224.43,229.83Zm-5.81,1.83v2.45a3.56,3.56,0,0,0,3.67-2.45Zm2.14,13.6a27,27,0,0,0,5.5.46V234.11a13.38,13.38,0,0,0-5.35,3.06,6.85,6.85,0,0,0-2.29,5.2A2.6,2.6,0,0,0,220.76,245.26Zm1.53,11.46a7.25,7.25,0,0,0-2.75,5.5h8.56v-7.95A8.65,8.65,0,0,0,222.29,256.72Zm4-7.64h-5.5v5.5Zm-5.5,17.12v2.14q4.58,0,5.5-2.14Zm9.78,26.44q1.53-1.07,1.53-3.82a73.09,73.09,0,0,0-1.22-12.23q-1.22-7-3.67-7a7.68,7.68,0,0,0-4.13,1.53c-1.53,1-2.29,2.14-2.29,3.36a70.63,70.63,0,0,0,1.68,10.24q1.68,8.1,2,9.63Q229,293.71,230.54,292.63Z"/><path class="cls-2" d="M357.36,116l1.53,2.14q11.3,13.45,16.35,23.08t5,24.6a78.57,78.57,0,0,1-6,29.49,70.69,70.69,0,0,1-17.12,25.37,52.77,52.77,0,0,1-26.44,13.6q-18.65,4-31.79,4a163.38,163.38,0,0,1-17.42-.92l-9.17-.31v2.45a3.09,3.09,0,0,1-.61,2,9.16,9.16,0,0,0-1.22,2.29v63.88l-1.83,1.83a58,58,0,0,1-14.21-2q-7.79-2-12.07-5.35,0-17.72-2.14-42.79-1.83-28.12-1.83-42.18a148.81,148.81,0,0,1,1.22-16.5,71.79,71.79,0,0,0,.92-10.39,26.06,26.06,0,0,0-1.07-8.1,17,17,0,0,1-1.07-4.43,8.22,8.22,0,0,1,1.07-3.36q1.07-2.14,1.07-7.34a15.71,15.71,0,0,0-1.22-5.81,14.67,14.67,0,0,1-1.22-4,42.28,42.28,0,0,1,1.22-8.56,42.17,42.17,0,0,0,1.22-8.25q0-4-1.53-5.35a8.16,8.16,0,0,0-4.13-1.83q-2.6-.46-2.6-1.68a6.39,6.39,0,0,1,1.83-4.43,6.88,6.88,0,0,1,4.28-2.29V106.2q0-1.22,3.21-3.51t4.13-2.29h41.87l3.67-1.83H325a53.78,53.78,0,0,1,9.78,4.89,69.45,69.45,0,0,0,18.95,8.25ZM255.58,283.16q4.89-1.84,6.42-5t1.53-9.32a7.87,7.87,0,0,0-6.57,3.51,55.78,55.78,0,0,0-5.65,10.54,74.74,74.74,0,0,1-3.36,7,14.27,14.27,0,0,1-4,4.89,32.21,32.21,0,0,0,4,3.67q3.36,0,8.56-5.5t5.2-9.78Zm10.54-159.08q9.63-6.26,13.91-10.54a26.06,26.06,0,0,0-11.61,3.06q-6.12,3.06-15,8.25H251.3a35.11,35.11,0,0,1,7.34-6.57q4.28-2.9,8.25-5.35t5.5-3.36v-2.45a147.4,147.4,0,0,0-18.34.92q-7,.92-7,5.5h5.81a1.23,1.23,0,0,0,.31.92,1.26,1.26,0,0,1,.31.92q0,.31-2.9,3.21a33.93,33.93,0,0,1-4.74,4.13q.61,4.58,1.68,6.11c.71,1,2,1.53,3.82,1.53Q256.5,130.34,266.13,124.08Zm-17.57,83.44q-2.75,2-2.75,8.4a12.81,12.81,0,0,0,7.79-2.6,43,43,0,0,0,7.49-7.49l-3.67-.31Q251.3,205.53,248.55,207.51Zm3.36-65.1q-5.2,4.74-5.2,9h12.53a45.77,45.77,0,0,1,.76-5.2,83,83,0,0,0,1.07-8.56Q257.11,137.68,251.91,142.41Zm-4,20a15,15,0,0,0,5.5-7.64,6.88,6.88,0,0,0-2.14-.31,3.21,3.21,0,0,0-3.06,1.68,7.24,7.24,0,0,0-.92,3.51ZM261.39,164q0-6.11-2.14-9.17a23.94,23.94,0,0,0-6.57,8.41,22.75,22.75,0,0,0-2.9,10.24q0,4.58,3.06,4.59a6.07,6.07,0,0,0-4.43,3.82,21.94,21.94,0,0,0-1.07,7.49,6.33,6.33,0,0,0,4.89-2,27.88,27.88,0,0,0,4-6.27q2.13-5.5,4.89-7.34Zm3.36,57.15q-2.45.62-7.34,1.68T250.23,226q-2.29,2.14-2.29,6.42l-.31,2.14q0,3.37,2.45,3.36l14.67-15Zm-16.2-83a4.84,4.84,0,0,0,1.53,1.68q5.5-1.83,5.5-6.11a21.44,21.44,0,0,0-5.2.61c-1.63.41-2.45,1-2.45,1.83A4,4,0,0,0,248.55,138.14ZM263.07,186a18.35,18.35,0,0,0-2-4.89,44.81,44.81,0,0,0-9,10.24q-4.13,6.27-4.13,11.46,7.94,0,11.77-2t3.82-9A29,29,0,0,0,263.07,186ZM251.3,249.84c-1.22.41-1.83,1.53-1.83,3.36a2.06,2.06,0,0,0,.61,1.53q5.19-2.44,7.34-5.5h-.92A17.26,17.26,0,0,0,251.3,249.84ZM256,264.06a10,10,0,0,0-4.89,2.75,7.84,7.84,0,0,0-1.38,5l.31,4a52.07,52.07,0,0,1,5.35-5.2q4.74-4.28,5.65-8.25Q259.55,263,256,264.06Zm3.51-3.67q2.44-2.29,2.45-9.32h-2.75l-9.17,9.78v1.83Q257.11,262.68,259.56,260.39Zm7-44.78c-.41-.81-.87-1.83-1.38-3.06a8,8,0,0,1-.76-2.75h-1.22L251.3,221.12Q255.58,221.12,266.58,215.61Zm-5.5,16.81q-2.14,0-5.81,6.27t-4,6.57a16,16,0,0,0,6.27-1.53q3.51-1.52,3.51-2.14ZM253.14,178h-.31a9.35,9.35,0,0,1,2.75-.31A7.9,7.9,0,0,1,253.14,178Zm7.49,118.89a12.23,12.23,0,0,0,.46-3.51v-2.6q-2.14.92-2.75,4a22.27,22.27,0,0,1-.92,3.67Q260.17,298.44,260.63,296.91Zm41.72-91.08V208q4-2.75,11.77-3.36t9.32-.92q10.09-.61,15.44-8.56t8.71-21.39l2.14-9.17q0-5.5-6.11-16.66t-10.7-13.6q-4.28-2.13-18.64-2.14l-15.59.31q-7.64.31-16.2.76a111.21,111.21,0,0,0-11.92,1.07l-1.83,1.83v15.28l.92,17.12q.92,20.17,1.83,29.8t2.75,9.63h26.9ZM279.27,228.3q6.26.16,8.4.15l-5.81-5.5,3.67-1.83q0-2.14-3.67-2.14a43.89,43.89,0,0,0-9.17,2,5.27,5.27,0,0,0-4,5.35A28.55,28.55,0,0,0,279.27,228.3Zm11.31-119q-4.74,3.06-10.54,10.09,1.83,0,7.34-2.14t5.81-1.83a18.37,18.37,0,0,1-3.51,3.21,15.5,15.5,0,0,1-4.13,2.29,11.6,11.6,0,0,1,4.28,2.44,7.7,7.7,0,0,0,5.2,1.83l3.67-.31L295,122.7q4.28-2.14,12.23-2.14l7,.31,3.06-3.36a1.24,1.24,0,0,0-.31.92c0,.82.81,1.43,2.45,1.83l4.28,1.07a12.55,12.55,0,0,0,2.75.46q8.86,1.22,10.09,3.06l-1.83,1.83q7.64,6.12,9.17,7.64a8.85,8.85,0,0,1,2.29,2.9,12.91,12.91,0,0,0,2.14,3.06,5.87,5.87,0,0,0,3.51,1.38l-4.28,3.67a40.8,40.8,0,0,0,4.13,2.14,9.06,9.06,0,0,1,4.43,4,14.47,14.47,0,0,1,1.22,6.42c0,1.63-.11,2.55-.31,2.75a99.38,99.38,0,0,0,8.4-6,7.81,7.81,0,0,0,3.21-6.27q0-6.72-2.75-6.72a7.63,7.63,0,0,0-3.06,1.22,16,16,0,0,0-3.36,2.45l-.31-1.22q0-.61,2-3.82t2-4.13q0-.61-2.75-4.59a43.82,43.82,0,0,0-6.42-7.34,11.26,11.26,0,0,0-7.64-3.36l3.36-3.67a88,88,0,0,0-22.16-8.71,117.66,117.66,0,0,0-25.21-2.29A21.29,21.29,0,0,0,290.58,109.25Zm62,103.46a55.9,55.9,0,0,0,10.09-11.16q4.43-6.42,4.43-11.61a23.54,23.54,0,0,0-12.84,3.67q-5.81,3.67-5.81,10.09h2.14q0,2.75-12.68,6t-28.27,5.65q-15.59,2.45-21.09,2.45a11.38,11.38,0,0,0,.61,3.21c.41,1.33,1.12,2,2.14,2h13.14l-3.36-4h1.22q1.53.31,5.5.76a72.4,72.4,0,0,1,7.95,1.38q-.92.31-.92.92,0,1.83,6.42,2.45t6.11.61q10.09,0,10.09-4H327.1a13.7,13.7,0,0,1,3.36-2.14,34.42,34.42,0,0,1,4.28-1.83l9.48.31Q347,217.45,352.62,212.71Zm-50.28,15.74q-.62-1.22-4-1.68a41.35,41.35,0,0,0-5.2-.46,8.24,8.24,0,0,0,2.75,2,12.33,12.33,0,0,0,4,.46Zm68.46-46.92a27.55,27.55,0,0,0,1.83-7.79h-2.45q-3.67,1.53-10.09,4.89t-6.42,4.58v3.67h13.14Q369,186.88,370.81,181.54Zm-13.91-8.86a3.44,3.44,0,0,0-2.29,3.21q7.64,0,10.39-4l-3.36-.31A11.1,11.1,0,0,0,356.9,172.67Zm13.29-4.43q4.28-1.22,4.28-6.11,0-3.05-1.07-4.28a4.47,4.47,0,0,0-3.51-1.22,10.27,10.27,0,0,0-8.25,4.13,13.58,13.58,0,0,0-3.36,8.71A45.37,45.37,0,0,0,370.19,168.24Z"/></g></g></svg>